<svg width="396" height="69" viewBox="0 0 396 69" fill="none" xmlns="http://www.w3.org/2000/svg">
<g clip-path="url(#clip0_231_528)">
<path d="M12.8485 66.1872C8.11561 64.8009 3.9794 63.46 0.449957 61.1563C0.0201544 60.8791 -0.121428 60.3195 0.111171 59.8608L7.3622 44.9548C7.61502 44.4508 8.23192 44.2592 8.73757 44.5163C11.7007 46.0336 15.0936 47.2233 18.9062 48.0953C23.1132 49.0582 27.1533 49.537 31.0165 49.537C34.8797 49.537 37.0742 48.4885 37.0742 46.3915C37.0742 45.343 36.4725 44.5112 35.269 43.9013C34.0656 43.2913 32.0025 42.9385 29.0849 42.8528C21.0957 42.505 14.6537 40.4281 9.75898 36.6273C4.86428 32.8264 2.41694 27.8662 2.41694 21.7515C2.41694 15.1127 5.0362 9.82474 10.2747 5.89283C15.5133 1.96596 22.6834 0 31.7902 0C36.6849 0 41.4936 0.635155 46.2214 1.90042C50.0745 2.93381 53.3865 4.189 56.1524 5.6559C57.1536 6.19024 57.5328 7.42526 56.9867 8.41832L50.2413 20.6072C49.7306 21.5297 48.598 21.8876 47.6271 21.4642C43.4757 19.6495 38.5001 18.7371 32.6953 18.7371C30.2024 18.7371 28.3568 18.9992 27.1533 19.5234C25.9499 20.0477 25.3482 20.8795 25.3482 22.0137C25.3482 22.9765 25.8184 23.6973 26.764 24.1762C27.7096 24.6601 29.3428 24.9424 31.6587 25.0281C40.5885 25.5524 47.5715 27.6292 52.5926 31.2537C57.6188 34.8831 60.1319 39.9291 60.1319 46.3915C60.1319 53.2925 57.3609 58.5754 52.0768 62.5779C45.8826 67.271 39.0867 68.4102 29.2063 68.4102C23.366 68.4102 17.9101 67.6692 12.8434 66.1821L12.8485 66.1872Z" fill="#C94F16"/>
<path d="M80.0851 63.6313C75.4382 60.7933 72.3284 56.816 69.7445 51.7045C67.1556 46.5931 65.8662 40.7607 65.8662 34.2075C65.8662 27.6544 67.1556 21.822 69.7445 16.7105C72.3284 11.5991 75.4382 7.62177 80.0851 4.78374C84.732 1.94571 89.9908 0.52417 95.8614 0.52417C102.905 0.52417 108.948 2.62119 113.984 6.81019C115.182 7.80829 117.013 7.15297 117.281 5.62053L117.655 3.49831C117.827 2.53549 118.666 1.82977 119.647 1.82977H136.698C137.815 1.82977 138.72 2.73209 138.72 3.84613V64.5589C138.72 65.6729 137.815 66.5752 136.698 66.5752H119.652C118.666 66.5752 117.827 65.8695 117.66 64.9016L117.281 62.7038C117.013 61.1613 115.172 60.506 113.974 61.5192C108.937 65.7636 102.905 67.8859 95.8664 67.8859C89.9908 67.8859 84.732 66.4694 80.0902 63.6263L80.0851 63.6313ZM93.146 43.8609C95.558 46.4418 98.1823 47.7273 102.04 47.7273C105.899 47.7273 108.523 46.4418 110.935 43.8609C113.342 41.285 114.55 38.4016 114.55 34.2075C114.55 30.0135 113.347 27.1301 110.935 24.5542C108.523 21.9783 105.899 20.6878 102.04 20.6878C98.1823 20.6878 95.558 21.9783 93.146 24.5542C90.7341 27.1351 89.5306 30.0135 89.5306 34.2075C89.5306 38.4016 90.7341 41.285 93.146 43.8609Z" fill="#C94F16"/>
<path d="M250.833 7.40503C251.667 8.30736 252.461 8.9778 253.553 8.15109C259.262 3.8159 264.819 0.897217 273.248 0.897217C281.678 0.897217 287.69 2.73211 292.377 7.40503C297.064 12.078 299.411 18.4799 299.411 26.6059V64.5639C299.411 65.678 298.506 66.5803 297.388 66.5803H277.506C276.388 66.5803 275.483 65.678 275.483 64.5639V30.1446C275.483 26.9991 274.76 24.5341 273.314 22.7395C271.868 20.95 269.83 20.0527 267.201 20.0527C264.394 20.0527 262.139 21.081 260.43 23.1327C258.721 25.1894 257.866 27.9619 257.866 31.4552V64.5639C257.866 65.678 256.961 66.5803 255.844 66.5803H236.225M292.377 7.41007C293.211 8.3124 294.005 8.98284 295.097 8.15613C300.806 3.82095 306.363 0.902258 314.793 0.902258C323.222 0.902258 329.234 2.73715 333.921 7.41007C338.609 12.083 340.955 18.485 340.955 26.6109V64.569C340.955 65.683 340.05 66.5853 338.932 66.5853H319.05C317.933 66.5853 317.027 65.683 317.027 64.569V30.1446C317.027 26.9991 316.304 24.5341 314.858 22.7395C313.412 20.95 311.374 20.0527 308.745 20.0527C305.939 20.0527 303.683 21.081 301.974 23.1327C300.265 25.1894 299.411 27.9619 299.411 31.4552V64.5639C299.411 65.678 298.506 66.5803 297.388 66.5803H277.769" fill="#3A5C7C"/>
<path d="M358.885 67.2861C355.634 66.3535 352.742 65.1488 350.208 63.6768C349.273 63.1324 348.924 61.9629 349.415 61.0051L354.016 52.0474C354.512 51.0846 355.675 50.6561 356.661 51.1048C358.739 52.0474 361.065 52.8036 363.633 53.3782C366.935 54.1192 370.106 54.4872 373.14 54.4872C376.174 54.4872 377.893 53.6807 377.893 52.0676C377.893 51.261 377.423 50.6208 376.477 50.152C375.531 49.6832 373.913 49.411 371.623 49.3455C365.353 49.0783 360.296 47.4804 356.453 44.5566C352.61 41.6329 350.689 37.8169 350.689 33.1138C350.689 28.0073 352.747 23.9393 356.858 20.9148C360.969 17.8902 366.602 16.3779 373.746 16.3779C377.589 16.3779 381.367 16.8669 385.073 17.8398C387.9 18.5808 390.352 19.473 392.435 20.5064C393.462 21.0156 393.841 22.296 393.275 23.2941L388.415 31.8989C387.92 32.776 386.848 33.1692 385.912 32.7861C382.707 31.4603 378.889 30.8 374.454 30.8C372.498 30.8 371.051 31.0016 370.106 31.4049C369.16 31.8082 368.69 32.4484 368.69 33.3204C368.69 34.0614 369.059 34.6159 369.802 34.9839C370.546 35.3519 371.825 35.5737 373.645 35.6393C380.659 36.0425 386.135 37.6405 390.079 40.4281C394.023 43.2208 395.995 47.0972 395.995 52.0726C395.995 57.3807 393.887 61.5344 389.674 64.5237C385.462 67.5129 379.475 69.0101 371.724 69.0101C367.138 69.0101 362.86 68.4405 358.88 67.2962L358.885 67.2861Z" fill="#C94F16"/>
<path d="M153.126 1.83491H170.172C171.158 1.83491 171.997 2.54064 172.164 3.50849L172.407 4.90483C172.67 6.42718 174.495 7.11779 175.678 6.11969C177.458 4.62758 179.385 3.41776 181.468 2.49527C184.623 1.09894 187.996 0.902344 191.591 0.902344C195.621 0.902344 199.196 1.23 202.306 2.88846C204.708 4.16885 206.756 5.86764 208.449 7.97978C209.218 8.93756 210.634 9.00813 211.499 8.13101C216.53 3.02457 223.26 0.902344 231.689 0.902344C240.118 0.902344 246.131 2.73724 250.818 7.41016C255.505 12.0831 257.852 18.485 257.852 26.611V64.569C257.852 65.6831 256.946 66.5854 255.829 66.5854H235.947C234.829 66.5854 233.924 65.6831 233.924 64.569V30.1447C233.924 26.9991 233.201 24.5341 231.755 22.7396C230.309 20.95 228.271 20.0528 225.642 20.0528C222.835 20.0528 220.58 21.0811 218.871 23.1328C217.162 25.1895 216.307 27.962 216.307 31.4553V64.564C216.307 65.6781 215.402 66.5804 214.285 66.5804H194.665C193.548 66.5804 192.643 65.6781 192.643 64.564V30.1447C192.643 26.9991 191.92 24.5341 190.474 22.7396C189.027 20.95 186.99 20.0528 184.36 20.0528C181.554 20.0528 179.299 21.0811 177.59 23.1328C175.881 25.1895 175.026 27.962 175.026 31.4553V64.564C175.026 65.6781 174.121 66.5804 173.003 66.5804H153.121C152.004 66.5804 151.099 65.6781 151.099 64.564V3.85128C151.099 2.73724 152.004 1.83491 153.121 1.83491H153.126Z" fill="#173F64"/>
</g>
<defs>
<clipPath id="clip0_231_528">
<rect width="396" height="69" fill="white"/>
</clipPath>
</defs>
</svg>
